<svg width="6" height="7" viewBox="0 0 6 7" fill="none" xmlns="http://www.w3.org/2000/svg">
<rect x="0.46875" y="5.44998" width="0.595833" height="0.65" fill="black"/>
<rect x="0.766602" y="5.12498" width="0.595833" height="0.65" fill="black"/>
<rect x="1.06458" y="4.79997" width="0.595833" height="0.65" fill="black"/>
<rect x="1.36249" y="4.47498" width="0.595833" height="0.65" fill="black"/>
<rect x="1.66046" y="4.14996" width="0.595833" height="0.65" fill="black"/>
<rect x="1.95831" y="3.82498" width="0.595833" height="0.65" fill="black"/>
<rect x="2.25616" y="3.49997" width="0.595833" height="0.65" fill="black"/>
<rect x="2.55414" y="3.17497" width="0.595833" height="0.65" fill="black"/>
<rect x="2.85205" y="2.84996" width="0.595833" height="0.65" fill="black"/>
<rect x="3.14996" y="2.52496" width="0.595833" height="0.65" fill="black"/>
<rect x="3.44788" y="2.19998" width="0.595833" height="0.65" fill="black"/>
<rect x="3.74579" y="1.87498" width="0.595833" height="0.65" fill="black"/>
<rect x="4.0437" y="1.54997" width="0.595833" height="0.65" fill="black"/>
<rect x="4.34167" y="1.22498" width="0.595833" height="0.65" fill="black"/>
<rect x="4.63953" y="0.899963" width="0.595833" height="0.65" fill="black"/>
<rect x="1.06458" y="0.899963" width="0.65" height="0.595833" transform="rotate(90 1.06458 0.899963)" fill="black"/>
<rect x="1.36249" y="1.22498" width="0.65" height="0.595833" transform="rotate(90 1.36249 1.22498)" fill="black"/>
<rect x="1.66046" y="1.54997" width="0.65" height="0.595833" transform="rotate(90 1.66046 1.54997)" fill="black"/>
<rect x="1.95831" y="1.87498" width="0.65" height="0.595833" transform="rotate(90 1.95831 1.87498)" fill="black"/>
<rect x="2.25616" y="2.19998" width="0.65" height="0.595833" transform="rotate(90 2.25616 2.19998)" fill="black"/>
<rect x="2.55414" y="2.52496" width="0.65" height="0.595833" transform="rotate(90 2.55414 2.52496)" fill="black"/>
<rect x="2.85205" y="2.84996" width="0.65" height="0.595833" transform="rotate(90 2.85205 2.84996)" fill="black"/>
<rect x="3.14996" y="3.17497" width="0.65" height="0.595833" transform="rotate(90 3.14996 3.17497)" fill="black"/>
<rect x="3.44788" y="3.49997" width="0.65" height="0.595833" transform="rotate(90 3.44788 3.49997)" fill="black"/>
<rect x="3.74579" y="3.82498" width="0.65" height="0.595833" transform="rotate(90 3.74579 3.82498)" fill="black"/>
<rect x="4.0437" y="4.14996" width="0.65" height="0.595833" transform="rotate(90 4.0437 4.14996)" fill="black"/>
<rect x="4.34167" y="4.47498" width="0.65" height="0.595833" transform="rotate(90 4.34167 4.47498)" fill="black"/>
<rect x="4.63953" y="4.79997" width="0.65" height="0.595833" transform="rotate(90 4.63953 4.79997)" fill="black"/>
<rect x="4.9375" y="5.12498" width="0.65" height="0.595833" transform="rotate(90 4.9375 5.12498)" fill="black"/>
<rect x="5.23541" y="5.44998" width="0.65" height="0.595833" transform="rotate(90 5.23541 5.44998)" fill="black"/>
</svg>
