<svg width="34" height="34" viewBox="0 0 34 34" fill="none" xmlns="http://www.w3.org/2000/svg">
<g clip-path="url(#clip0_46_258)">
<rect width="34" height="34" rx="17" fill="#4F4F4F"/>
<circle cx="17" cy="17" r="16.5" fill="#AF0000" stroke="#A40000"/>
<g clip-path="url(#clip1_46_258)">
<path d="M20.2034 9.72476C17.8477 8.91193 15.0087 8.50493 12.1858 8.26368C11.616 9.47444 11.3744 10.8316 11.3511 12.287C15.2942 10.0898 23.5268 11.6983 25.8778 15.9698C25.7519 12.7148 23.4316 10.8386 20.2034 9.72475L20.2034 9.72476ZM11.2255 8.05779L9.71051 7.92069C8.90684 10.8688 9.04581 13.1692 9.67548 15.1332C8.93185 15.3 7.92096 15.3305 6.79297 15.2305C6.91614 15.547 7.10827 16.0115 7.67768 16.3091C8.64935 16.4717 9.34261 16.2746 10.0031 16.0261C11.7084 20.1521 15.4699 22.8757 16.4231 27.5701L18.2463 28.2065C16.7557 18.8604 7.85792 19.4353 11.2255 8.0578L11.2255 8.05779Z" fill="black"/>
</g>
<path fill-rule="evenodd" clip-rule="evenodd" d="M26.7663 18.3031C26.6148 17.945 26.2155 17.6038 25.2295 17.2535L23.5517 19.1181L26.7477 19.593C26.7911 19.3651 26.8275 19.1614 26.8436 18.9712C26.8656 18.7121 26.848 18.4963 26.7663 18.3031ZM25.1213 16.8564L25.1007 16.919L25.0849 16.9048L23.1473 19.058L23.0834 19.0485L23.0691 19.145L18.0638 24.7074L18.3171 24.9354L18.3268 24.9246L18.3428 24.939L18.4058 24.8689C19.6862 25.1834 20.7514 25.1497 21.6963 24.8385C22.4239 24.9984 23.0452 25.0832 23.5771 25.0984L23.4509 25.9477L23.5647 25.9646L24.4164 26.0912L24.4665 25.7541L23.8381 25.6608L23.9217 25.0982C24.1712 25.0902 24.3987 25.0647 24.6065 25.0225C25.3271 24.876 25.8062 24.5281 26.131 24.026C26.4497 23.5333 26.6129 22.9023 26.7308 22.2012C26.79 21.849 26.8386 21.4735 26.8887 21.0838L26.8934 21.0471L26.8934 21.0471L26.8934 21.047L26.8934 21.047L26.8934 21.047L26.8934 21.047L26.8934 21.047L26.8934 21.047C26.9421 20.6676 26.9926 20.2739 27.0564 19.8689L27.0421 19.8666L27.0596 19.7758L27.0597 19.7755L27.0807 19.6659L27.8753 19.2167L27.1686 18.475C27.1508 18.3716 27.1223 18.2699 27.0801 18.1703C26.8556 17.6395 26.2764 17.2363 25.1213 16.8564ZM27.1259 19.4201C27.1511 19.2747 27.1718 19.1343 27.1832 19.0001C27.1876 18.9475 27.1908 18.8954 27.1922 18.8435L27.5306 19.1945L27.1259 19.4201ZM26.6489 20.2959C25.4334 21.8846 24.3678 23.2336 23.1564 24.0888C22.8714 24.29 22.5786 24.4638 22.2742 24.6075C23.2551 24.7863 23.987 24.8007 24.5386 24.6886C25.1731 24.5595 25.5719 24.2629 25.8449 23.8409C26.1239 23.4096 26.2783 22.837 26.3947 22.1446C26.4527 21.8001 26.5005 21.4312 26.5507 21.0404L26.5556 21.0022C26.585 20.7733 26.6152 20.5374 26.6489 20.2959ZM22.9599 23.8104C21.7815 24.6424 20.465 24.9809 18.6655 24.5798L23.2971 19.4248L26.5197 19.9037C25.237 21.5824 24.1691 22.9568 22.9599 23.8104ZM25.6481 18.0335L25.873 18.3368L25.5684 18.571L25.6346 18.6572L25.9377 18.4242L26.1973 18.7744L26.2846 18.7097L26.0239 18.3579L26.3647 18.0959L26.2985 18.0097L25.9591 18.2706L25.7354 17.9688L25.6481 18.0335Z" fill="#121212"/>
</g>
<defs>
<clipPath id="clip0_46_258">
<rect width="34" height="34" rx="17" fill="white"/>
</clipPath>
<clipPath id="clip1_46_258">
<rect width="20" height="20" fill="white" transform="translate(9.60278 4.94267) rotate(19.3854)"/>
</clipPath>
</defs>
</svg>
