<svg width="26" height="26" viewBox="0 0 26 26" fill="none" xmlns="http://www.w3.org/2000/svg">
<circle cx="13" cy="13" r="12.5" fill="#D9D9D9" stroke="#7A7A7A"/>
<path fill-rule="evenodd" clip-rule="evenodd" d="M14.8455 4.88508C16.7018 5.23938 17.516 5.7362 17.8863 6.34335C18.0829 6.66561 18.1699 7.04305 18.1987 7.50107C18.2211 7.85815 18.2077 8.24803 18.1893 8.68616L18.1736 8.67749L18.162 8.6985H12.3186L14.8455 4.88508ZM14.6085 4.40112L14.62 4.334C16.7147 4.69408 17.8016 5.24015 18.315 6.08192C18.3986 6.21903 18.4653 6.36144 18.5184 6.50858L20 7.66336L18.692 8.68284L18.6913 8.6985H18.6946V9.00182L18.7037 9.0019C18.6975 9.71964 18.7113 10.4141 18.7246 11.0828L18.7246 11.0835L18.7259 11.1485C18.7395 11.8358 18.7519 12.497 18.74 13.1206C18.7163 14.3629 18.5962 15.4883 18.1756 16.4137C17.7482 17.3539 17.0185 18.0704 15.8208 18.5051C15.4519 18.6389 15.0391 18.7459 14.5775 18.8251V19.9452H15.7825V20.4472L14.5775 20.4472H14.0754V18.8978C13.151 19.0088 12.0513 19.022 10.7444 18.9313C9.17696 19.722 7.32317 20.0534 4.99182 19.8233L4.89915 19.9633L4.86788 19.9427L4.85396 19.9637L4.43542 19.6863L11.6654 8.77533V8.6985H11.7163L14.5775 4.38058L14.6085 4.40112ZM18.6998 7.46959C18.7152 7.71465 18.7148 7.97398 18.7077 8.24459L19.3975 7.71356L18.6696 7.15324C18.6833 7.25708 18.6931 7.36258 18.6998 7.46959ZM13.0551 17.2726C14.9574 15.4564 16.4698 12.7965 18.201 9.66602C18.204 10.1547 18.2134 10.6304 18.2225 11.0902L18.2226 11.0908V11.0912L18.2239 11.1584C18.2376 11.8474 18.2497 12.4988 18.238 13.111C18.2145 14.3401 18.0945 15.3787 17.7185 16.2059C17.3492 17.0182 16.7256 17.6426 15.6495 18.0331C14.6901 18.3812 13.3678 18.5442 11.5453 18.4725C12.0787 18.1288 12.5789 17.7272 13.0551 17.2726ZM5.30656 19.3475C8.60869 19.6153 10.848 18.6856 12.7084 16.9095C14.5915 15.1117 16.0921 12.4438 17.8846 9.20058H12.0191L5.30656 19.3475ZM16.8369 7.39308C16.9755 7.39308 17.0879 7.2582 17.0879 7.09183C17.0879 6.92545 16.9755 6.79058 16.8369 6.79058C16.6982 6.79058 16.5858 6.92545 16.5858 7.09183C16.5858 7.2582 16.6982 7.39308 16.8369 7.39308Z" fill="#121212"/>
</svg>
